Coordinates
version=1
nRows=17
nColumns=24
inDegrees=yes

Units are S.I. units (second, meters, Newtons, ...)
Angles are in degrees.

endheader
time	pelvis_tilt	pelvis_list	pelvis_rotation	pelvis_tx	pelvis_ty	pelvis_tz	hip_flexion_r	hip_adduction_r	hip_rotation_r	knee_angle_r	ankle_angle_r	subtalar_angle_r	mtp_angle_r	hip_flexion_l	hip_adduction_l	hip_rotation_l	knee_angle_l	ankle_angle_l	subtalar_angle_l	mtp_angle_l	lumbar_extension	lumbar_bending	lumbar_rotation
      1.45500000	     18.63737794	      3.55001699	      2.58772313	     -0.53087406	      0.92384820	      0.23217455	      9.37066416	     -2.99933609	     -4.25320275	    -11.97124842	     12.84437475	      1.84925711	     40.93041806	    -34.54089207	      3.37928636	     -5.19619477	    -14.71950215	     30.14521706	     16.93819177	     19.04171770	    -37.30691309	     -0.90024118	     -2.91069197
      1.46000000	     18.76769711	      3.39905922	      2.76675223	     -0.52327158	      0.92304527	      0.23239177	      9.35463051	     -2.75402316	     -4.18218443	    -12.96731286	     13.16946870	      1.93708154	     40.88662743	    -34.87636562	      3.01764503	     -5.16434687	    -15.31873792	     30.11106119	     17.11358033	     19.40609431	    -37.36120888	     -0.58915642	     -3.06569245
      1.46500000	     18.86711452	      3.35318694	      2.98819948	     -0.51566256	      0.92227214	      0.23253727	      9.31598485	     -2.61176101	     -4.06110976	    -13.92255340	     13.46568063	      1.89319054	     40.71837292	    -35.15123729	      2.74524132	     -4.93091870	    -15.94079586	     29.76909979	     16.97508189	     22.01384613	    -37.38954002	     -0.35987000	     -3.31316694
      1.47000000	     18.91272033	      3.22238694	      3.11930161	     -0.50797890	      0.92141150	      0.23278045	      9.42870506	     -2.37176224	     -4.09976299	    -15.07788814	     13.29876192	      2.08873335	     40.98722358	    -35.32709935	      2.43938830	     -4.90809410	    -16.66877071	     29.69755976	     17.08017007	     22.25161767	    -37.32832675	     -0.10857176	     -3.41297250
      1.47500000	     18.88978183	      3.21596082	      3.28790936	     -0.50064464	      0.92056757	      0.23286188	      9.68210061	     -2.29174886	     -4.20551363	    -16.28379102	     11.66490570	      1.64495535	     44.52746478	    -35.37076553	      2.26276646	     -4.53021939	    -17.44547038	     29.30020383	     16.76718217	     24.45762321	    -37.25897973	      0.05806087	     -3.55830559
      1.48000000	     18.88220718	      2.99344906	      3.43059581	     -0.49321281	      0.91996510	      0.23313738	      9.86581735	     -1.95912296	     -4.22452966	    -17.33314940	      9.61797183	      0.81570392	     45.08120747	    -35.36704659	      1.86892024	     -4.43413447	    -18.35059527	     29.06231634	     16.76484399	     25.55897120	    -37.18711907	      0.40403927	     -3.57684967
      1.48500000	     18.70368760	      2.92057674	      3.64967360	     -0.48605378	      0.91926281	      0.23307729	     10.38391058	     -1.90603497	     -4.39452373	    -18.67253221	      8.56730209	      0.53710298	     45.08052616	    -35.13735688	      1.65533907	     -3.86247389	    -19.27110976	     28.62249985	     16.22610353	     27.87583330	    -36.96838959	      0.66528920	     -3.68423018
      1.49000000	     18.51996876	      2.81051173	      3.75514388	     -0.47886117	      0.91875800	      0.23311517	     10.90067223	     -1.81683587	     -4.34541066	    -19.98741999	      8.62465285	      0.76597881	     45.44193495	    -34.83816902	      1.48611313	     -3.37975591	    -20.32255110	     28.17767934	     15.66585738	     28.76501996	    -36.74366285	      0.90098443	     -3.64750974
      1.49500000	     18.35821719	      2.71985331	      3.95582070	     -0.47168152	      0.91839089	      0.23312235	     11.36763083	     -1.77435219	     -4.44804140	    -21.30848535	      8.89449222	      1.14473550	     46.69451948	    -34.44528548	      1.26978242	     -2.89009768	    -21.57056370	     27.68828867	     15.14841540	     30.91379799	    -36.54723829	      1.17497596	     -3.75968589
      1.50000000	     18.17810358	      2.61831954	      4.00788564	     -0.46446169	      0.91799673	      0.23340893	     11.93488544	     -1.70634761	     -4.48767977	    -22.83038444	      9.13113127	      1.26262688	     46.51572190	    -33.99962164	      1.12376566	     -2.58708863	    -22.87438841	     27.03151182	     14.68471211	     32.99575491	    -36.32695018	      1.35568769	     -3.72110394
      1.50500000	     18.04350744	      2.53591138	      4.06240190	     -0.45711830	      0.91775648	      0.23363771	     12.43142283	     -1.67770942	     -4.58073688	    -24.36893424	      9.02080278	      0.67645417	     46.38372378	    -33.56948941	      1.00210274	     -2.29179495	    -24.24797460	     26.39671890	     14.23004723	     33.63644299	    -36.14667041	      1.53489475	     -3.70701165
      1.51000000	     17.97884198	      2.29511381	      4.08673566	     -0.44958331	      0.91769987	      0.23394017	     12.71472525	     -1.43951016	     -4.55035250	    -25.65132843	      8.90142202	     -0.23190548	     45.47928142	    -33.16801370	      0.72861596	     -2.29130253	    -25.66827947	     25.34955528	     13.45780491	     37.41688833	    -36.02418109	      1.84609520	     -3.51185485
      1.51500000	     17.86956005	      2.13177815	      4.26845926	     -0.44208280	      0.91768992	      0.23404779	     12.98006151	     -1.30755376	     -4.65614132	    -26.86280430	      9.27032705	     -0.63172944	     44.07432244	    -32.54175959	      0.41968478	     -2.15610400	    -27.39677095	     24.35824267	     13.01476513	     39.90802754	    -35.84501938	      2.16476308	     -3.56946250
      1.52000000	     17.80938597	      1.95358207	      4.41720448	     -0.43461950	      0.91781726	      0.23419388	     13.13631658	     -1.14730002	     -4.81805541	    -27.97973541	     10.08778306	     -0.35063761	     42.45490169	    -31.88383134	      0.09530872	     -2.16492637	    -29.23532673	     23.20228639	     12.67060997	     42.57332503	    -35.73071251	      2.49758407	     -3.60411263
      1.52500000	     17.80906443	      1.68646999	      4.64806734	     -0.42732969	      0.91815870	      0.23429364	     13.12057919	     -0.85526130	     -5.01710569	    -28.86804992	     10.84446916	      0.06346774	     40.92626886	    -31.16922148	     -0.37830063	     -2.18161421	    -31.22609514	     21.88279060	     12.32366986	     45.33954279	    -35.68104909	      2.95387681	     -3.61974765
      1.53000000	     17.71100171	      1.31842460	      4.77992607	     -0.41999185	      0.91831636	      0.23478645	     13.17635984	     -0.36469223	     -4.98837311	    -29.65095776	     11.25604980	      0.28274661	     39.64190090	    -30.24387861	     -0.94078643	     -2.38966854	    -33.37658884	     20.51240856	     12.12322679	     48.02761741	    -35.52558443	      3.40581328	     -3.46211401
      1.53500000	     17.52583948	      0.96395686	      4.91657799	     -0.41268453	      0.91841593	      0.23539055	     13.26630009	      0.13526410	     -4.90187065	    -30.31253308	     11.61705165	      0.25196387	     38.82421019	    -29.13556205	     -1.50098813	     -2.53715817	    -35.63825849	     19.07124514	     11.83764678	     50.09248441	    -35.29113241	      3.83539247	     -3.35731547
